<svg width="2500" height="1421" viewBox="0 0 2500 1421" fill="none" xmlns="http://www.w3.org/2000/svg">
<path d="M1445.66 448.198H1669.67V677.297H1783.06C1836.03 677.062 1888.61 668.258 1938.77 651.227C1965.13 642.498 1990.51 631.037 2014.48 617.032C1983.79 574.572 1965.58 524.384 1961.89 472.126C1952.49 395.869 1972.13 318.866 2016.89 256.419L2040.46 229.188L2068.5 251.777C2142.87 306.318 2193.26 387.519 2209.12 478.376C2295.6 451.777 2389.1 460.475 2469.2 502.571L2500 520.428L2483.84 552.034C2451.07 607.306 2402.61 651.587 2344.62 679.249C2286.62 706.911 2221.71 716.705 2158.14 707.386C1964.13 1190.67 1542.09 1419.5 1029.43 1419.5C901.76 1427.1 774.41 1400.09 660.812 1341.34C547.215 1282.58 451.582 1194.26 384.004 1085.68L381.772 1081.84L361.594 1040.86C315.958 937.322 298.139 823.668 309.9 711.135L313.025 677.208H504.357V448.198H728.456V224.099H1176.65V0H1445.57V448.198H1445.66Z" fill="#3A4E55"/>
<path d="M2171.8 533.017C2173.33 483.813 2162.56 435.005 2140.45 391.021C2118.34 347.038 2085.6 309.272 2045.2 281.151C2010.2 332.524 1993.7 394.26 1998.39 456.241C2003.07 518.223 2028.68 576.774 2071 622.299C1987.8 683.955 1886.61 716.493 1783.06 714.885H346.773C334.444 829.503 355.105 945.258 406.325 1048.53L422.664 1078.44C433 1095.99 444.297 1112.95 456.502 1129.25V1129.25C515.547 1133.05 569.98 1134.39 619.799 1133.26C700.527 1133.76 780.867 1122.05 858.094 1098.53C862.416 1097.04 867.153 1097.33 871.264 1099.33C875.374 1101.33 878.522 1104.88 880.013 1109.2C881.505 1113.52 881.219 1118.26 879.218 1122.37C877.217 1126.48 873.666 1129.63 869.344 1131.12C861.309 1133.89 852.916 1136.57 844.256 1138.98C790.514 1154.01 735.264 1162.99 679.529 1165.76C683.458 1165.76 675.422 1166.39 675.422 1166.39L668.101 1167.01C642.12 1168.44 614.532 1168.8 585.515 1168.8C554.177 1168.8 523.017 1168.17 488.822 1166.48L487.929 1167.1C557.567 1239.53 641.909 1296.21 735.28 1333.33C828.652 1370.44 928.889 1387.13 1029.25 1382.27C1525.66 1382.27 1946.72 1162.19 2133.23 668.012C2265.54 681.583 2392.68 647.834 2450.45 534.981C2407.31 513.103 2359.68 501.538 2311.31 501.197C2262.94 500.856 2215.15 511.748 2171.71 533.017" fill="#00AADA"/>
<path d="M2171.8 533.017C2173.33 483.813 2162.56 435.005 2140.45 391.021C2118.34 347.038 2085.6 309.272 2045.19 281.151C2010.2 332.524 1993.7 394.26 1998.39 456.241C2003.07 518.223 2028.68 576.774 2071 622.299C1987.8 683.955 1886.6 716.493 1783.06 714.885H431.859C424.492 794.913 437.933 875.487 470.877 948.791C503.822 1022.09 555.152 1085.64 619.888 1133.26V1133.26C700.616 1133.76 780.956 1122.05 858.183 1098.53C860.323 1097.79 862.588 1097.48 864.847 1097.62C867.107 1097.76 869.317 1098.34 871.353 1099.33C873.388 1100.32 875.208 1101.7 876.709 1103.39C878.211 1105.09 879.364 1107.06 880.102 1109.2C880.841 1111.34 881.151 1113.61 881.015 1115.87C880.878 1118.12 880.298 1120.34 879.307 1122.37C878.316 1124.41 876.935 1126.23 875.24 1127.73C873.546 1129.23 871.573 1130.38 869.433 1131.12C861.398 1133.89 853.005 1136.57 844.345 1138.98C789.164 1154.44 732.462 1163.84 675.244 1167.01L673.547 1165.05C842.47 1251.74 1087.46 1251.38 1368.34 1143.53C1688.84 1014.04 1969.21 801.792 2180.81 528.463L2171.89 532.749" fill="#27B9EC"/>
<path d="M349.452 864.344C357.913 928.446 377.142 990.658 406.325 1048.36L422.663 1078.27C433 1095.81 444.296 1112.77 456.502 1129.07C515.547 1132.88 569.98 1134.22 619.799 1133.08C700.527 1133.58 780.866 1121.87 858.094 1098.35C860.234 1097.61 862.498 1097.3 864.758 1097.44C867.017 1097.58 869.228 1098.16 871.263 1099.15C873.299 1100.14 875.119 1101.52 876.62 1103.22C878.122 1104.91 879.275 1106.88 880.013 1109.02C880.752 1111.16 881.062 1113.43 880.925 1115.69C880.789 1117.95 880.209 1120.16 879.218 1122.19C878.227 1124.23 876.845 1126.05 875.151 1127.55C873.457 1129.05 871.484 1130.2 869.344 1130.94C861.308 1133.71 852.916 1136.39 844.256 1138.8C789.139 1154.03 732.528 1163.22 675.422 1166.21H666.494C640.513 1167.64 612.924 1168.53 584.176 1168.53C552.837 1168.53 520.874 1167.9 485.965 1166.21C555.819 1238.69 640.357 1295.41 733.916 1332.57C827.475 1369.73 927.894 1386.46 1028.45 1381.65C1453.43 1381.65 1823.06 1220.31 2037.34 863.808L349.452 864.344Z" fill="#088CB9"/>
<path d="M444.716 864.344C466.371 973.096 529.07 1069.33 619.799 1133.08C700.527 1133.58 780.867 1121.87 858.094 1098.35C862.416 1096.86 867.153 1097.15 871.264 1099.15C875.374 1101.15 878.521 1104.7 880.013 1109.02C881.505 1113.34 881.219 1118.08 879.218 1122.19C877.217 1126.3 873.665 1129.45 869.344 1130.94C861.309 1133.71 852.916 1136.39 844.256 1138.8C788.858 1154 731.985 1163.19 674.619 1166.21C843.541 1252.9 1087.82 1251.65 1368.61 1143.71C1541.89 1075.47 1703.77 981.237 1848.68 864.255L444.716 864.344Z" fill="#039CC7"/>
<path d="M947.913 994.786C958.508 994.786 968.865 997.928 977.674 1003.81C986.484 1009.7 993.35 1018.07 997.404 1027.86C1001.46 1037.64 1002.52 1048.41 1000.45 1058.81C998.386 1069.2 993.284 1078.74 985.792 1086.23C978.3 1093.73 968.755 1098.83 958.363 1100.9C947.972 1102.96 937.201 1101.9 927.412 1097.85C917.624 1093.79 909.257 1086.93 903.371 1078.12C897.485 1069.31 894.343 1058.95 894.343 1048.36C894.343 1034.15 899.987 1020.52 910.033 1010.48C920.079 1000.43 933.705 994.786 947.913 994.786" fill="#D5EEF2"/>
<path d="M947.912 1009.96C952.675 1009.96 957.398 1010.84 961.841 1012.55C959.758 1013.76 957.983 1015.43 956.654 1017.44C955.325 1019.45 954.478 1021.74 954.179 1024.13C953.879 1026.51 954.136 1028.94 954.929 1031.21C955.722 1033.49 957.03 1035.55 958.75 1037.23C960.47 1038.92 962.557 1040.18 964.846 1040.92C967.135 1041.67 969.566 1041.88 971.948 1041.53C974.33 1041.18 976.599 1040.28 978.578 1038.91C980.558 1037.54 982.193 1035.73 983.358 1033.62C986.514 1041.22 987.147 1049.63 985.162 1057.62C983.178 1065.6 978.681 1072.73 972.335 1077.97C965.988 1083.21 958.128 1086.26 949.912 1086.69C941.696 1087.12 933.56 1084.9 926.701 1080.36C919.843 1075.82 914.625 1069.19 911.818 1061.46C909.01 1053.72 908.761 1045.29 911.107 1037.41C913.453 1029.52 918.27 1022.6 924.848 1017.66C931.426 1012.72 939.418 1010.02 947.645 1009.96" fill="#3A4E55"/>
<path d="M0.0892867 883.718H2492.86C2438.57 869.969 2321.17 851.398 2340.45 780.24C2241.79 894.432 2003.77 860.594 1943.68 804.078C1876.81 901.128 1487.36 864.255 1460.22 788.633C1376.38 886.843 1116.48 886.843 1032.64 788.633C1005.86 864.255 616.049 901.128 549.177 804.078C489.09 860.416 251.152 894.432 152.405 780.24C171.78 851.666 54.1945 869.969 0 883.718" fill="#3A4E55"/>
<path d="M1090.32 1380.93C980.683 1334.21 892.781 1247.74 844.256 1138.89C786.276 1154.27 726.787 1163.25 666.851 1165.67C640.9 1167.1 613.609 1167.85 584.979 1167.9C552.004 1167.9 517.243 1166.92 480.697 1164.96C551.212 1238.39 636.711 1295.77 731.382 1333.21C826.053 1370.64 927.675 1387.26 1029.34 1381.91C1049.81 1381.91 1070.14 1381.53 1090.32 1380.75" fill="#C0DBE1"/>
<path d="M893.539 1225.13C874.078 1198.23 857.556 1169.31 844.256 1138.89C786.276 1154.27 726.787 1163.25 666.851 1165.67C737.438 1201.07 814.663 1221.26 893.539 1224.96" fill="#D5EEF2"/>
<path fill-rule="evenodd" clip-rule="evenodd" d="M542 486.611H735.535V680.146H542V486.611ZM558.123 502.744H573.396V664.023H558.123V502.744ZM586.834 502.744H602.723V664.023H586.844V502.744H586.834ZM616.15 502.744H632.039V664.023H616.15V502.744ZM645.486 502.744H661.365V664.023H645.486V502.744ZM674.813 502.744H690.691V664.023H674.813V502.744ZM704.129 502.744H719.412V664.023H704.129V502.744ZM765.301 263.311H958.846V456.836H765.291V263.311H765.301ZM781.434 279.443H796.697V440.713H781.434V279.443ZM810.145 279.443H826.023V440.713H810.154V279.443H810.145ZM839.461 279.443H855.34V440.713H839.461V279.443ZM868.787 279.443H884.666V440.713H868.787V279.443ZM898.113 279.443H914.002V440.713H898.113V279.443ZM927.43 279.443H942.723V440.713H927.43V279.443Z" fill="#23A3C2"/>
<path fill-rule="evenodd" clip-rule="evenodd" d="M765.301 486.611H958.846V680.146H765.291V486.611H765.301ZM781.434 502.744H796.697V664.023H781.434V502.744ZM810.145 502.744H826.023V664.023H810.154V502.744H810.145ZM839.461 502.744H855.34V664.023H839.461V502.744ZM868.787 502.744H884.666V664.023H868.787V502.744ZM898.113 502.744H914.002V664.023H898.113V502.744ZM927.43 502.744H942.723V664.023H927.43V502.744Z" fill="#34BBDE"/>
<path fill-rule="evenodd" clip-rule="evenodd" d="M988.611 486.611H1182.15V680.146H988.611V486.611ZM1004.73 502.744H1020V664.023H1004.73V502.744ZM1033.45 502.744H1049.32V664.023H1033.45V502.744ZM1062.77 502.744H1078.65V664.023H1062.77V502.744ZM1092.1 502.744H1107.98V664.023H1092.1V502.744ZM1121.41 502.744H1137.31V664.023H1121.41V502.744ZM1150.74 502.744H1166.01V664.023H1150.74V502.744V502.744Z" fill="#23A3C2"/>
<path fill-rule="evenodd" clip-rule="evenodd" d="M988.611 263.311H1182.15V456.836H988.611V263.311ZM1004.73 279.443H1020V440.713H1004.73V279.443ZM1033.45 279.443H1049.32V440.713H1033.45V279.443ZM1062.77 279.443H1078.65V440.713H1062.77V279.443ZM1092.1 279.443H1107.98V440.713H1092.1V279.443ZM1121.41 279.443H1137.31V440.713H1121.41V279.443ZM1150.74 279.443H1166.01V440.713H1150.74V279.443V279.443ZM1211.91 486.611H1405.45V680.146H1211.91V486.611ZM1228.04 502.744H1243.31V664.023H1228.04V502.744ZM1256.76 502.744H1272.63V664.023H1256.76V502.744ZM1286.07 502.744H1301.95V664.023H1286.07V502.744ZM1315.4 502.744H1331.29V664.023H1315.4V502.744ZM1344.72 502.744H1360.61V664.023H1344.72V502.744ZM1374.05 502.744H1389.32V664.023H1374.05V502.744Z" fill="#34BBDE"/>
<path fill-rule="evenodd" clip-rule="evenodd" d="M1211.91 263.311H1405.45V456.836H1211.91V263.311ZM1228.04 279.443H1243.31V440.713H1228.04V279.443ZM1256.76 279.443H1272.63V440.713H1256.76V279.443ZM1286.07 279.443H1301.95V440.713H1286.07V279.443ZM1315.4 279.443H1331.29V440.713H1315.4V279.443ZM1344.72 279.443H1360.61V440.713H1344.72V279.443ZM1374.05 279.443H1389.32V440.713H1374.05V279.443Z" fill="#23A3C2"/>
<path fill-rule="evenodd" clip-rule="evenodd" d="M1211.91 40H1405.45V233.555H1211.91V40ZM1228.04 56.123H1243.31V217.412H1228.04V56.1133V56.123ZM1256.76 56.123H1272.63V217.412H1256.76V56.1133V56.123ZM1286.07 56.123H1301.95V217.412H1286.07V56.1133V56.123ZM1315.4 56.123H1331.29V217.412H1315.4V56.1133V56.123ZM1344.72 56.123H1360.61V217.412H1344.72V56.1133V56.123ZM1374.05 56.123H1389.32V217.412H1374.05V56.1133V56.123Z" fill="#34BBDE"/>
<path fill-rule="evenodd" clip-rule="evenodd" d="M1435.21 486.611H1628.75V680.146H1435.21V486.611ZM1451.33 502.744H1466.61V664.023H1451.34V502.744H1451.33ZM1480.04 502.744H1495.93V664.023H1480.05V502.744H1480.04ZM1509.37 502.744H1525.26V664.023H1509.37V502.744ZM1538.69 502.744H1554.58V664.023H1538.69V502.744ZM1568.03 502.744H1583.9V664.023H1568.03V502.744ZM1597.34 502.744H1612.62V664.023H1597.34V502.744Z" fill="#23A3C2"/>
</svg>
