<svg width="560" height="342" viewBox="0 0 560 342" fill="none" xmlns="http://www.w3.org/2000/svg">
<path d="M26.667 8.8V17.4667L23.7337 15.4667C22.1337 14.2667 18.267 13.3333 15.2003 13.3333C10.5337 13.3333 8.93366 14 6.13366 17.4667C3.20033 20.9333 2.66699 22.8 2.66699 30.6667C2.66699 38.5333 3.20033 40.4 6.13366 43.8667C8.93366 47.3333 10.5337 48 15.2003 48C18.267 48 22.0003 47.0667 23.6003 46C26.1337 44.2667 26.5337 44.2667 27.2003 46C27.6003 47.0667 29.2003 48 30.667 48C33.2003 48 33.3337 47.2 33.3337 24V-2.5034e-06H30.0003C26.8003 -2.5034e-06 26.667 0.266664 26.667 8.8ZM23.467 20.5333C25.467 22.1333 26.0003 24.1333 26.0003 30.6667C26.0003 39.4667 23.867 42.6667 18.0003 42.6667C12.1337 42.6667 10.0003 39.4667 10.0003 30.6667C10.0003 21.8667 12.1337 18.6667 18.0003 18.6667C19.6003 18.6667 22.0003 19.4667 23.467 20.5333Z" fill="black"/>
<path d="M45.5999 1.20001C42.7999 2.93334 44.2665 7.33334 47.7332 7.73334C51.3332 8.26668 53.0665 4.80001 50.6665 2.00001C48.7999 -0.266657 47.9999 -0.39999 45.5999 1.20001Z" fill="black"/>
<path d="M44.0003 33.2C44.0003 44.1333 43.6003 54 43.2003 55.2C42.667 56.5333 40.8003 57.3333 38.5337 57.3333C35.6003 57.3333 34.667 58 34.667 60C34.667 62.2666 35.6003 62.6666 40.4003 62.6666C50.1337 62.6666 50.667 61.3333 50.667 35.6V13.3333H47.3337H44.0003V33.2Z" fill="black"/>
<path d="M66.2664 14.2667C64.7998 14.6667 64.1331 15.6 64.5331 16.9333C64.9331 18 65.3331 19.0667 65.3331 19.3333C65.3331 19.6 68.3998 19.4667 72.1331 19.0667C77.8664 18.4 79.3331 18.6667 80.7998 20.6667C83.9998 25.0667 82.9331 26.2667 75.1998 27.0667C66.9331 27.8667 61.9998 30.5333 60.6664 34.6667C59.4664 38.2667 60.7998 43.2 63.4664 45.8667C66.1331 48.6667 75.8664 48.6667 79.7331 45.8667C82.3998 44 82.7998 44 83.4664 45.8667C83.8664 47.0667 85.4664 48 86.7998 48C89.0664 48 89.3331 46.8 89.3331 34C89.3331 20.8 89.0664 19.7333 85.9998 16.6667C83.3331 13.8667 81.5998 13.3333 75.7331 13.4667C71.8664 13.6 67.5998 13.8667 66.2664 14.2667ZM81.7331 35.4667C81.3331 40.2667 77.8664 42.9333 72.6664 42.4C69.4664 42.1333 68.5331 41.3333 68.2664 38.5333C67.7331 34.5333 69.8664 32.4 75.3331 31.6C81.3331 30.8 81.9998 31.2 81.7331 35.4667Z" fill="black"/>
<path d="M98.667 30.6667V48H101.867C104.934 48 105.067 47.6 105.6 36.1333C106 22.9333 108.267 18.6667 114.667 18.6667C120.4 18.6667 121.334 20.8 121.334 34.9333V48H125.467H129.6L129.067 33.2C128.667 19.6 128.4 18.1333 125.467 15.8667C121.734 12.8 112.4 12.5333 108.4 15.3333C105.867 17.0667 105.467 17.0667 104.8 15.3333C104.4 14.2667 102.8 13.3333 101.334 13.3333C98.8003 13.3333 98.667 14.1333 98.667 30.6667Z" fill="black"/>
<path d="M141.6 16.4C137.867 20.4 137.6 28.2666 141.2 31.8666C143.467 34.1333 143.6 34.6666 141.733 36.1333C140.4 37.3333 140 39.0666 140.533 41.7333C141.2 44.8 140.667 46.1333 138.667 47.6C136.933 48.8 136 50.9333 136 54C136 60.4 139.733 62.6666 150.4 62.6666C159.2 62.6666 165.733 60.2666 167.2 56.6666C168.267 53.6 168.133 47.7333 166.933 45.7333C165.333 43.3333 159.067 41.3333 152.667 41.3333C142.933 41.3333 143.333 36.9333 153.333 35.6C161.6 34.5333 165.867 29.6 164.8 22.4C164 18 164.267 17.3333 166.667 17.3333C168.133 17.3333 169.333 16.4 169.333 15.3333C169.333 13.7333 167.067 13.3333 156.933 13.3333C145.6 13.3333 144.133 13.6 141.6 16.4ZM156.533 20.2666C157.733 21.8666 158.667 24 158.667 24.9333C158.667 27.2 153.733 32 151.467 32C146.4 32 143.2 22.6666 146.933 18.9333C149.467 16.4 154.267 17.0666 156.533 20.2666ZM161.2 49.8666C166.133 55.8666 151.6 61.7333 144.267 56.5333C140.8 54.1333 140.667 52.9333 143.467 50.1333C146.133 47.4666 159.067 47.2 161.2 49.8666Z" fill="black"/>
<path d="M180.534 15.7333C176.267 19.2 174.667 23.0667 174.667 30.5333C174.667 42.8 179.6 48 191.067 48C198.667 48 203.467 44.2667 205.334 37.0667C207.467 29.6 205.734 21.6 201.334 17.0667C198.134 13.8667 196.4 13.3333 190.4 13.3333C185.734 13.3333 182.4 14.1333 180.534 15.7333ZM196.534 21.6C197.734 23.2 198.667 27.3333 198.667 30.6667C198.667 38.2667 195.734 42.6667 190.8 42.6667C184.134 42.6667 182 39.8667 182 30.6667C182 24.1333 182.534 22.1333 184.534 20.5333C188.534 17.7333 194.134 18.1333 196.534 21.6Z" fill="black"/>
<path d="M336.533 81.8667C318.533 85.4667 302.8 97.7333 297.733 112.267C294.133 122.933 294.533 139.6 298.933 150.267L302.4 158.667H247.2H192V133.333V108H228.667H265.333V95.3333V82.6667H214H162.667V163.333V244.133L141.733 243.733L120.667 243.333L112.933 232C105.333 220.8 87.3333 191.333 86 187.867C85.6 186.667 87.6 184.8 91.6 182.667C101.733 177.333 111.2 167.733 115.467 158.4C118.933 150.8 119.333 148.667 119.2 136C119.2 118 116 109.2 106.133 99.2C93.0667 86.1333 77.3333 82.6667 31.8667 82.6667H0V176V269.333H14.6667H29.3333V231.333V193.2L44.2667 193.6L59.0667 194L76.1333 221.733C102.533 264.933 108.133 272.533 118.133 278.667L122.533 281.467L134.533 275.333L146.667 269.333H206H265.333V256V242.667H228.667H192V213.333V184H265.467H338.933L352.8 190.667C361.2 194.667 368.8 199.467 372 202.667C384.267 214.933 381.2 233.733 365.733 241.467C353.6 247.467 328.133 245.733 305.2 237.333C299.067 235.2 294 233.333 293.733 233.333C293.467 233.333 293.333 239.6 293.333 247.2V261.067L298.533 263.067C311.6 268.4 320.533 269.867 340.667 269.867C362.533 270 368.667 268.933 381.733 262.4C401.333 252.667 411.067 232.933 407.867 209.333C406.133 197.6 402.533 190.667 393.467 182.4C385.467 175.067 382.667 173.467 354.533 160.267C335.2 151.2 327.333 144.933 325.2 136.933C322 125.2 326.667 114.133 336.933 109.2C347.733 104 370.133 105.733 389.6 113.467C393.333 114.933 396.4 115.867 396.533 115.733C396.667 115.467 397.467 113.733 398.4 111.6L400 108H438.667H477.333V188.667V269.333H492H506.667V188.667V108H533.333H560V95.3333V82.8L463.733 82.1333C410.667 81.7333 362.267 81.2 356 80.8C349.6 80.4 341.2 80.9333 336.533 81.8667ZM463.067 86.1333L556 86.8V95.3333V104H529.333H502.667V184.667V265.333H492H481.333V184.667V104H439.333H397.333L396 107.333C395.333 109.2 394.4 110.667 394.133 110.667C393.733 110.667 388.8 109.067 383.067 107.067C374.133 104.133 370.4 103.6 356 103.467C340.533 103.333 338.933 103.6 333.6 106.667C325.2 111.467 320.667 119.733 320.8 130C320.8 134.533 321.867 139.733 323.067 142.133C326 147.867 334.4 155.067 342.8 159.067C346.8 160.933 357.6 166 366.933 170.4C395.733 184 404.4 195.067 404.533 218C404.533 228.133 404 231.2 401.067 237.467C397.2 245.867 390.667 252.933 382.267 257.867C364.8 268.133 330 269.6 304.4 261.2L296 258.4V248.4C296 239.467 296.267 238.4 298.4 239.067C324.667 247.733 341.733 250.4 355.467 248.133C367.733 245.867 374 242.4 378.8 235.067C382 229.733 382.667 227.467 382.667 220.133C382.667 204.667 376 197.467 351.2 185.867L338.667 180H263.333H188V213.333V246.667H224.667H261.333V256V265.333H203.867H146.267L134.4 271.467L122.4 277.467L117.867 274C110.267 268.133 104.4 260.133 84 227.2C73.0667 209.6 63.4667 194.267 62.4 192.933C60.9333 190.8 58 190.4 43.0667 189.733L25.3333 188.933V227.067V265.333H14.6667H4V175.867V86.4L38.9333 87.0667C75.6 87.7333 81.2 88.4 92.9333 94.5333C101.6 98.9333 107.6 104.8 111.6 113.067C114.933 120 115.333 122 115.333 135.333C115.333 147.867 114.933 150.933 112.133 157.067C108.267 165.6 98.1333 175.2 87.6 180.4C83.4667 182.4 80 184.4 80 184.8C80 186.4 95.7333 212.533 106.933 229.6L119.067 248H142.933H166.667V167.333V86.6667H214H261.333V95.3333V104H224.667H188V133.333V162.667H248.667C282 162.667 309.333 162.4 309.333 162C309.333 161.6 307.867 159.067 306.133 156.267C297.867 143.6 296.533 122.8 303.067 109.867C312.133 92.1333 330.267 83.6 356 84.8C363.733 85.0667 411.867 85.7333 463.067 86.1333Z" fill="black"/>
<path d="M25.333 138.667V173.733L45.0663 172.933C67.0663 172 71.4663 171.067 80.133 165.467C88.933 160 93.333 150.667 93.333 138.133C93.333 126.8 90.533 119.733 83.5997 113.733C76.3997 107.333 67.4663 105.2 45.0663 104.4L25.333 103.6V138.667ZM71.0663 110.8C78.133 113.2 86.133 120.533 88.133 126.267C90.533 133.6 89.0663 149.333 85.4663 155.2C79.333 165.067 66.2663 169.333 42.3997 169.333H29.333V138.533V107.6L47.733 108.4C57.733 108.8 68.2663 109.867 71.0663 110.8Z" fill="black"/>
<path d="M230.534 293.467C226.934 294.8 224 299.6 224 304.133C224 305.733 222.934 307.2 221.334 307.6C219.867 308 218.667 309.2 218.667 310.133C218.667 311.2 219.867 312 221.334 312C223.867 312 224 312.933 224 326.667V341.333H228H232V326.667V312H236C239.067 312 240 311.467 240 309.333C240 307.2 239.067 306.667 235.867 306.667C232.267 306.667 231.867 306.267 232.267 302.933C232.534 300 233.467 299.2 237.334 298.667C242.8 297.867 244.4 294.133 239.734 292.8C235.867 291.867 234.8 291.867 230.534 293.467Z" fill="black"/>
<path d="M528 317.333V341.333H531.333C534.4 341.333 534.667 340.8 534.667 335.467C534.667 331.733 535.467 329.067 536.8 327.867C538.8 326.267 539.467 326.667 542.533 330.667C550.133 340.533 551.333 341.6 554.933 341.067L558.533 340.667L551.467 331.333L544.4 322L550.933 314.4L557.6 306.667H553.6C550.4 306.667 548.133 308.267 542.133 314.933L534.667 323.067V308.267V293.333H531.333H528V317.333Z" fill="black"/>
<path d="M246.667 324V341.333H249.867C252.934 341.333 253.067 340.933 253.467 330C254 317.467 256.4 313.2 263.2 312.933C265.067 312.8 266.667 312.267 266.667 311.733C266.667 311.333 267.067 310 267.467 308.8C268.8 305.467 260.267 306 256.534 309.467L253.6 312.267L252.667 309.467C252.267 307.867 250.667 306.667 249.2 306.667C246.8 306.667 246.667 307.733 246.667 324Z" fill="black"/>
<path d="M278.266 307.6C276.8 308 276.133 308.933 276.533 310.267C276.933 311.333 277.333 312.4 277.333 312.667C277.333 312.933 280.4 312.8 284.133 312.4C289.866 311.733 291.333 312 292.8 314C296 318.4 294.933 319.6 287.2 320.4C278.933 321.2 274 323.867 272.666 328C271.466 331.6 272.8 336.533 275.466 339.2C278.133 342 287.866 342 291.733 339.2C294.4 337.333 294.8 337.333 295.466 339.2C295.866 340.4 297.466 341.333 298.8 341.333C301.066 341.333 301.333 340.133 301.333 327.333C301.333 314.133 301.066 313.067 298 310C295.333 307.2 293.6 306.667 287.733 306.8C283.866 306.933 279.6 307.2 278.266 307.6ZM293.733 328.8C293.333 333.6 289.866 336.267 284.666 335.733C281.466 335.467 280.533 334.667 280.266 331.867C279.733 327.867 281.866 325.733 287.333 324.933C293.333 324.133 294 324.533 293.733 328.8Z" fill="black"/>
<path d="M310.667 324V341.333H314C317.2 341.333 317.334 341.067 317.334 331.467C317.334 319.067 319.2 313.6 323.734 312.4C330.134 310.8 331.334 313.067 331.734 327.867L332.134 341.333H336H340V328.933C340 315.067 341.6 312 348.4 312C353.467 312 354.667 315.467 354.667 329.2C354.667 341.2 354.667 341.333 358 341.333H361.334V326.933C361.334 314.267 361.067 312.133 358.667 309.6C355.334 306 346.134 305.6 341.6 308.8C338.8 310.8 338.267 310.8 336.134 308.8C333.2 306.133 324.134 306 320.4 308.667C317.867 310.4 317.467 310.4 316.8 308.667C316.4 307.6 314.8 306.667 313.334 306.667C310.8 306.667 310.667 307.467 310.667 324Z" fill="black"/>
<path d="M376.534 309.067C372.267 312.533 370.667 316.4 370.667 323.867C370.667 336.4 375.6 341.333 387.867 341.333C396.134 341.333 398.667 340.4 398.667 337.333C398.667 335.2 397.734 334.933 391.067 335.6C382.267 336.267 379.334 334.8 377.867 329.067L377.067 325.333H388.534H400V319.867C400 311.733 394.4 306.667 385.734 306.667C381.734 306.667 378.267 307.6 376.534 309.067ZM391.2 314.133C395.467 318.4 393.867 320 385.334 320C380.934 320 377.334 319.6 377.334 318.933C377.334 318.4 378.267 316.533 379.467 314.933C381.867 311.467 388.134 310.933 391.2 314.133Z" fill="black"/>
<path d="M406 310.8C406.534 312.933 408.534 320.667 410.534 327.733C414.134 340.267 414.4 340.667 418.267 341.067L422.267 341.467L426.267 327.333L430.134 313.067L434 327.333L437.734 341.467L441.867 341.067C445.867 340.667 446 340.4 450.8 323.6L455.734 306.667H452C448.267 306.667 448.134 307.067 444.934 320.267L441.6 334L440 328C433.867 305.067 434.534 306.533 430.134 306.933C426.134 307.333 425.867 307.733 422.534 320C418.934 332.8 418.534 332.933 416.134 323.333C412 306.667 412 306.667 408.534 306.667C405.467 306.667 405.2 307.067 406 310.8Z" fill="black"/>
<path d="M465.867 309.067C461.6 312.533 460 316.4 460 323.867C460 336.133 464.933 341.333 476.4 341.333C484 341.333 488.8 337.6 490.667 330.4C492.8 322.933 491.067 314.933 486.667 310.4C483.467 307.2 481.733 306.667 475.733 306.667C471.067 306.667 467.733 307.467 465.867 309.067ZM481.867 314.933C483.067 316.533 484 320.667 484 324C484 331.6 481.067 336 476.133 336C469.467 336 467.333 333.2 467.333 324C467.333 317.467 467.867 315.467 469.867 313.867C473.867 311.067 479.467 311.467 481.867 314.933Z" fill="black"/>
<path d="M500 324V341.333H503.2C506.267 341.333 506.4 340.933 506.8 330C507.333 317.467 509.733 313.2 516.533 312.933C518.4 312.8 520 312.267 520 311.733C520 311.333 520.4 310 520.8 308.8C522.133 305.467 513.6 306 509.867 309.467L506.933 312.267L506 309.467C505.6 307.867 504 306.667 502.533 306.667C500.133 306.667 500 307.733 500 324Z" fill="black"/>
</svg>
